<?xml version="1.0" standalone="no"?>
<!DOCTYPE svg PUBLIC "-//W3C//DTD SVG 20010904//EN"
 "http://www.w3.org/TR/2001/REC-SVG-20010904/DTD/svg10.dtd">
<svg version="1.0" xmlns="http://www.w3.org/2000/svg"
 width="349.000000pt" height="349.000000pt" viewBox="0 0 349.000000 349.000000"
 preserveAspectRatio="xMidYMid meet">
<metadata>
Created by potrace 1.14, written by Peter Selinger 2001-2017
</metadata>
<g transform="translate(0.000000,349.000000) scale(0.100000,-0.100000)"
fill="#000000" stroke="none">
<path d="M1381 2068 c-41 -11 -106 -51 -137 -85 -22 -24 -30 -20 -25 10 1 5
-3 6 -8 3 -5 -4 -13 0 -18 7 -4 7 -23 24 -42 37 -32 22 -45 24 -163 25 -107 1
-132 -1 -148 -15 -11 -10 -16 -21 -12 -25 11 -12 -20 6 -41 23 -13 12 -48 16
-146 17 -72 1 -134 -1 -140 -4 -5 -4 -15 -19 -20 -34 -6 -16 -8 -26 -3 -24 4
3 7 -19 8 -49 0 -39 -3 -54 -13 -54 -8 0 -11 5 -8 10 3 6 1 10 -5 10 -6 0 -9
4 -6 9 3 5 -1 14 -9 21 -8 7 -15 21 -15 31 0 10 -5 21 -10 24 -6 4 -8 11 -5
16 4 5 1 9 -4 9 -6 0 -11 7 -11 15 0 16 -10 18 -119 19 -62 1 -101 -15 -101
-41 0 -6 -8 -30 -19 -54 -21 -51 -34 -82 -35 -89 -1 -3 -19 -50 -41 -104 -35
-92 -37 -101 -24 -125 13 -23 21 -26 69 -25 30 0 58 -5 62 -10 5 -7 8 -7 8 2
0 6 7 12 16 12 8 0 12 -4 9 -10 -3 -6 1 -7 9 -4 9 3 13 11 9 17 -4 6 0 8 10 4
9 -3 21 1 29 11 11 13 11 14 -1 8 -9 -6 -12 -4 -9 5 3 8 11 14 19 14 8 0 17 4
21 9 4 6 12 -2 19 -17 7 -15 16 -27 21 -27 5 0 7 -4 4 -9 -3 -4 21 -7 54 -5
45 2 59 0 54 -9 -5 -8 -3 -8 7 1 15 14 33 16 24 3 -3 -5 -1 -13 5 -16 6 -4 9
-1 8 6 -2 9 9 14 29 14 18 1 33 -4 33 -9 0 -7 3 -8 8 -1 4 6 24 11 45 13 30 2
37 0 31 -10 -6 -10 -4 -10 9 0 9 8 21 11 26 8 5 -4 13 -1 17 5 5 8 2 10 -7 5
-8 -4 -7 -1 3 6 11 10 13 19 7 30 -6 11 -4 21 7 32 19 19 38 11 30 -13 -4 -9
2 -5 13 8 14 18 20 21 24 10 4 -10 6 -10 6 -1 1 6 6 12 12 12 7 0 17 7 23 15
8 12 11 2 9 -44 -1 -48 2 -59 13 -54 8 3 14 1 14 -4 0 -4 26 -8 58 -8 31 1 63
-4 71 -9 11 -8 13 -8 8 0 -4 7 2 12 18 12 14 0 22 -5 18 -11 -3 -6 -1 -7 6 -3
6 4 9 12 6 17 -4 5 2 9 12 9 15 0 16 2 3 10 -11 7 -11 10 -2 10 14 0 12 31 -3
42 -5 4 8 5 28 4 21 -2 40 0 43 5 2 4 12 5 21 2 12 -5 14 -3 8 7 -6 10 -4 12
9 7 10 -4 15 -3 11 3 -5 9 7 14 26 12 4 -1 5 9 2 21 -5 22 -5 22 10 2 9 -11
17 -23 17 -27 0 -11 44 -51 76 -70 16 -10 28 -21 27 -26 -1 -4 12 -7 28 -6 16
1 29 -2 29 -8 0 -5 17 -8 38 -7 21 2 44 -1 51 -6 10 -5 12 -4 7 4 -9 14 30 11
53 -3 10 -6 12 -5 7 2 -8 14 20 12 43 -2 9 -6 12 -5 7 2 -4 7 7 9 34 7 22 -2
40 1 40 6 0 16 34 5 53 -16 11 -12 16 -15 15 -6 -3 16 49 24 58 9 3 -4 10 -5
16 -2 21 13 78 14 78 1 0 -8 3 -8 8 -2 11 16 95 18 86 3 -6 -10 -4 -11 7 0 15
14 33 16 24 3 -3 -5 -1 -13 5 -16 6 -4 9 -1 8 6 -4 18 41 20 51 2 7 -13 9 -13
14 0 4 10 16 14 42 11 26 -2 34 0 28 9 -4 7 6 4 21 -7 16 -10 25 -13 22 -7 -4
6 0 11 9 11 10 0 14 -5 9 -12 -6 -10 -4 -10 7 0 15 14 33 16 24 3 -3 -5 -1
-13 5 -16 6 -4 9 -1 8 7 -2 9 9 13 39 12 32 -1 44 3 48 16 7 21 28 20 54 -1
10 -10 25 -13 37 -9 10 4 22 6 26 4 4 -3 10 1 14 7 4 8 3 9 -4 5 -8 -5 -10 -1
-6 9 6 14 9 13 23 -7 12 -17 24 -22 45 -20 17 2 26 0 22 -7 -4 -5 -2 -13 4
-16 6 -4 9 -1 8 6 -2 8 18 13 65 14 48 2 65 0 61 -8 -5 -8 -2 -7 7 1 15 14 33
16 24 3 -3 -5 -1 -13 5 -16 6 -4 9 -1 8 7 -4 16 60 18 81 3 12 -8 13 -7 6 4
-6 11 -4 13 8 8 10 -3 17 -3 17 1 0 4 11 9 26 10 17 1 23 -2 18 -10 -4 -6 -3
-8 4 -5 12 8 44 -2 37 -12 -7 -13 28 -6 63 11 18 9 30 13 27 8 -3 -5 0 -12 6
-16 7 -4 9 -3 5 4 -8 14 22 44 36 36 7 -4 8 -2 4 4 -4 7 -2 12 3 12 6 0 10 3
9 8 -5 17 14 52 25 45 7 -4 5 2 -3 12 -9 11 -10 16 -2 11 15 -9 15 -1 2 24 -7
13 -7 21 0 25 5 3 10 11 10 16 0 6 -5 7 -12 3 -6 -4 -8 -3 -4 4 3 6 2 13 -4
17 -13 8 -3 25 15 25 10 0 13 -22 13 -93 0 -100 6 -136 25 -138 7 -1 23 -2 37
-3 14 0 30 -5 37 -9 6 -4 14 -3 18 3 4 7 13 6 27 -1 15 -8 19 -8 13 0 -5 8 2
11 22 8 21 -3 32 2 45 21 9 14 14 33 10 41 -6 14 -8 84 -3 160 1 20 3 21 16
11 12 -10 15 -10 15 0 0 7 8 10 20 7 11 -3 18 -1 15 4 -3 5 0 19 6 31 7 13 12
35 10 51 -2 20 3 29 21 36 l23 10 -25 1 c-20 0 -22 2 -10 10 11 7 11 10 2 10
-7 0 -11 4 -7 9 3 5 -1 16 -9 24 -22 21 -353 19 -369 -3 -12 -16 -47 -16 -47
0 0 7 -35 20 -65 25 -5 1 -27 -5 -47 -13 -26 -9 -42 -11 -55 -4 -11 6 -59 9
-108 6 -50 -2 -94 -4 -100 -4 -5 1 -41 2 -78 4 -53 2 -73 -1 -88 -15 -11 -10
-20 -21 -20 -26 1 -17 -11 -43 -20 -43 -6 0 -7 5 -4 10 3 6 1 10 -6 10 -6 0
-9 8 -6 20 3 11 2 18 -2 16 -4 -3 -14 3 -23 13 -12 14 -28 18 -79 16 -35 -1
-69 -3 -76 -3 -11 -2 -23 -28 -29 -61 -2 -7 -8 -19 -14 -25 -6 -6 -11 -7 -10
-1 2 6 1 13 0 18 -1 4 -3 10 -4 15 -8 34 -20 51 -39 55 -12 2 -121 3 -242 1
-250 -3 -221 -3 -345 0 -52 1 -102 5 -110 8 -19 8 -36 7 -79 -4z"/>
</g>
</svg>
